HIERARCHY
ROOT Hips
{
	OFFSET -0.001795 -0.223333 0.028219
	CHANNELS 6 Xposition Yposition Zposition Zrotation Yrotation Xrotation 
	JOINT LeftUpLeg
	{
		OFFSET 0.069520 -0.091406 -0.006815
		CHANNELS 3 Zrotation Yrotation Xrotation
		JOINT LeftLeg
		{
			OFFSET 0.034277 -0.375199 -0.004496
			CHANNELS 3 Zrotation Yrotation Xrotation
			JOINT LeftFoot
			{
				OFFSET -0.013596 -0.397961 -0.043693
				CHANNELS 3 Zrotation Yrotation Xrotation
				JOINT LeftToe
				{
					OFFSET 0.026358 -0.055791 0.119288
					CHANNELS 3 Zrotation Yrotation Xrotation
					End Site
					{
						OFFSET 0.000000 0.000000 0.000000
					}
				}
			}
		}
	}
	JOINT RightUpLeg
	{
		OFFSET -0.067670 -0.090522 -0.004320
		CHANNELS 3 Zrotation Yrotation Xrotation
		JOINT RightLeg
		{
			OFFSET -0.038290 -0.382569 -0.008850
			CHANNELS 3 Zrotation Yrotation Xrotation
			JOINT RightFoot
			{
				OFFSET 0.015774 -0.398415 -0.042312
				CHANNELS 3 Zrotation Yrotation Xrotation
				JOINT RightToe
				{
					OFFSET -0.025372 -0.048144 0.123348
					CHANNELS 3 Zrotation Yrotation Xrotation
					End Site
					{
						OFFSET 0.000000 0.000000 0.000000
					}
				}
			}
		}
	}
	JOINT Spine
	{
		OFFSET -0.002533 0.108963 -0.026696
		CHANNELS 3 Zrotation Yrotation Xrotation
		JOINT Spine1
		{
			OFFSET 0.005487 0.135180 0.001092
			CHANNELS 3 Zrotation Yrotation Xrotation
			JOINT Spine2
			{
				OFFSET 0.001457 0.052922 0.025425
				CHANNELS 3 Zrotation Yrotation Xrotation
				JOINT Neck
				{
					OFFSET -0.002778 0.213870 -0.042857
					CHANNELS 3 Zrotation Yrotation Xrotation
					JOINT Head
					{
						OFFSET 0.005152 0.064970 0.051349
						CHANNELS 3 Zrotation Yrotation Xrotation
						End Site
						{
							OFFSET 0.000000 0.000000 0.000000
						}
					}
				}
				JOINT LeftShoulder
				{
					OFFSET 0.078845 0.121749 -0.034090
					CHANNELS 3 Zrotation Yrotation Xrotation
					JOINT LeftArm
					{
						OFFSET 0.090977 0.030469 -0.008868
						CHANNELS 3 Zrotation Yrotation Xrotation
						JOINT LeftForeArm
						{
							OFFSET 0.259612 -0.012772 -0.027456
							CHANNELS 3 Zrotation Yrotation Xrotation
							JOINT LeftHand
							{
								OFFSET 0.249234 0.008986 -0.001171
								CHANNELS 3 Zrotation Yrotation Xrotation
								End Site
								{
									OFFSET 0.000000 0.000000 0.000000
								}
							}
						}
					}
				}
				JOINT RightShoulder
				{
					OFFSET -0.081759 0.118833 -0.038615
					CHANNELS 3 Zrotation Yrotation Xrotation
					JOINT RightArm
					{
						OFFSET -0.096012 0.032551 -0.009143
						CHANNELS 3 Zrotation Yrotation Xrotation
						JOINT RightForeArm
						{
							OFFSET -0.253742 -0.013329 -0.021401
							CHANNELS 3 Zrotation Yrotation Xrotation
							JOINT RightHand
							{
								OFFSET -0.255298 0.007772 -0.005559
								CHANNELS 3 Zrotation Yrotation Xrotation
								End Site
								{
									OFFSET 0.000000 0.000000 0.000000
								}
							}
						}
					}
				}
			}
		}
	}
}
MOTION
Frames: 14
Frame Time: 0.050000
-0.063492 0.933917 -0.050502 -1.085420 6.477794 2.084794 9.938470 -0.422835 -11.182470 0.682535 -0.614597 10.926117 -3.190784 0.704367 13.215641 0.000000 0.000000 0.000000 -6.143540 0.652974 -14.233678 -0.857825 0.661031 16.786327 5.752064 4.779469 16.849699 0.000000 0.000000 0.000000 7.810407 -0.584743 3.875197 -1.769943 0.880909 -1.563526 -4.796971 9.682214 15.016802 11.067812 -10.131034 1.667369 0.000000 0.000000 0.000000 25.250281 0.557007 4.517063 -39.242065 -50.585570 6.897241 110.207731 -19.868468 -32.154614 0.000000 0.000000 0.000000 -15.864884 -7.007122 -2.845023 63.216999 39.633780 21.377946 -125.080850 31.940537 -39.141207 0.000000 0.000000 0.000000 
-0.063963 0.937744 -0.052393 -1.185656 7.590934 2.936908 10.069165 -0.480548 -11.869022 0.717376 -0.560002 9.663383 -3.993918 0.172700 14.556961 0.000000 0.000000 0.000000 -6.146161 0.621875 -13.805960 -0.584625 0.503499 14.506958 5.407346 3.925953 17.917986 0.000000 0.000000 0.000000 7.767463 -0.517457 3.035818 -1.486153 0.759492 -1.802887 -4.284744 9.488957 14.689833 11.081448 -10.344077 2.225429 0.000000 0.000000 0.000000 25.982014 0.731332 4.708835 -37.283605 -52.878006 6.657724 109.280811 -15.392747 -26.032980 0.000000 0.000000 0.000000 -16.891518 -6.403544 -2.753760 61.690530 40.130292 21.269959 -124.411424 29.911650 -35.096520 0.000000 0.000000 0.000000 
-0.064534 0.939105 -0.054285 -1.116788 8.432581 3.755711 9.921228 -0.553800 -12.889870 0.928136 -0.580740 9.254608 -4.482002 -0.188129 15.196364 0.000000 0.000000 0.000000 -6.423385 0.576657 -13.723027 -0.177298 0.352985 12.872650 5.044878 3.326521 18.265299 0.000000 0.000000 0.000000 7.468747 -0.479664 2.612767 -1.059392 0.566273 -1.806617 -4.134225 9.875292 14.047117 11.091941 -10.540431 2.748431 0.000000 0.000000 0.000000 25.021777 0.947761 4.761442 -36.320696 -54.219128 6.427373 109.429217 -12.479654 -22.656869 0.000000 0.000000 0.000000 -16.852230 -6.253136 -2.836539 61.990685 40.324288 21.899128 -124.408760 27.900432 -31.378740 0.000000 0.000000 0.000000 
-0.065194 0.938319 -0.056142 -1.055414 10.102427 4.281089 9.677210 -0.669634 -14.229234 1.354995 -0.693376 9.580860 -5.221027 -1.130263 15.194288 0.000000 0.000000 0.000000 -6.336982 0.546686 -13.764563 -0.329773 0.340676 12.376313 4.141435 2.217764 17.899145 0.000000 0.000000 0.000000 7.303002 -0.450114 2.221731 -0.818385 0.422485 -1.039057 -3.930087 9.724848 13.001999 10.937104 -10.238656 2.447137 0.000000 0.000000 0.000000 23.580389 1.180726 4.700467 -35.337421 -55.937678 6.348949 109.358494 -11.106360 -21.054385 0.000000 0.000000 0.000000 -16.379370 -5.538796 -2.750654 62.109315 41.314569 22.890221 -125.080731 26.328665 -28.959139 0.000000 0.000000 0.000000 
-0.065698 0.936636 -0.058324 -0.982206 11.144193 4.396705 9.537379 -0.747328 -15.171726 1.509260 -0.781728 10.275980 -5.605813 -1.765801 14.898216 0.000000 0.000000 0.000000 -6.560501 0.491715 -13.914578 -0.025775 0.245070 12.603486 3.558384 1.565597 17.376358 0.000000 0.000000 0.000000 7.292377 -0.458208 2.228846 -0.562912 0.300101 -0.940405 -3.737838 10.524532 12.733073 11.474570 -10.783135 2.491546 0.000000 0.000000 0.000000 23.241743 0.948014 4.951533 -33.025200 -57.637515 5.266518 108.670318 -9.922172 -19.911868 0.000000 0.000000 0.000000 -16.810678 -4.985089 -2.857842 62.200943 42.757746 24.498362 -124.779119 23.870120 -23.880343 0.000000 0.000000 0.000000 
-0.065371 0.934751 -0.060906 -0.721413 12.098664 4.340682 8.940164 -0.849590 -15.885371 1.973631 -0.935593 10.992635 -5.941749 -2.401544 14.501215 0.000000 0.000000 0.000000 -6.824966 0.430861 -14.266569 -0.110791 0.243663 13.551974 3.025416 0.961089 16.818363 0.000000 0.000000 0.000000 7.488217 -0.477813 2.272172 -0.724517 0.359277 -0.670382 -3.056324 11.344753 12.835405 11.732591 -10.722931 1.753415 0.000000 0.000000 0.000000 22.808569 0.418360 5.168531 -31.151889 -58.445051 4.162423 108.235589 -8.959874 -19.133412 0.000000 0.000000 0.000000 -18.872202 -3.656463 -2.872844 62.063191 45.202128 26.911318 -123.546455 21.473799 -18.671290 0.000000 0.000000 0.000000 
-0.063788 0.933970 -0.063582 -0.383620 12.879776 4.247196 8.448770 -0.942486 -16.527748 1.929852 -1.005766 11.789350 -6.268371 -2.877093 14.434289 0.000000 0.000000 0.000000 -7.403588 0.323608 -14.775108 0.056185 0.173150 14.822412 2.715706 0.502431 16.869908 0.000000 0.000000 0.000000 7.834064 -0.522047 2.468951 -0.909919 0.429041 -0.417337 -2.662230 12.436420 12.701876 12.406029 -11.402897 1.807111 0.000000 0.000000 0.000000 22.623009 -0.121237 5.485965 -29.383010 -58.407766 2.903836 107.636640 -8.767922 -19.599778 0.000000 0.000000 0.000000 -21.309341 -2.271621 -2.985331 61.152459 47.320048 28.850779 -121.081497 18.185843 -11.650358 0.000000 0.000000 0.000000 
-0.061019 0.933951 -0.066398 0.229576 13.166554 4.215152 7.316994 -1.062761 -16.859167 2.335816 -1.137926 12.301052 -6.420924 -3.025835 14.527561 0.000000 0.000000 0.000000 -8.327914 0.173783 -14.973463 0.145479 0.135821 15.377152 2.674494 0.395232 17.068799 0.000000 0.000000 0.000000 7.988004 -0.566549 2.793384 -1.320506 0.637561 -0.742494 -2.045891 14.208521 13.251395 13.197079 -11.765698 0.923809 0.000000 0.000000 0.000000 22.621620 -0.342952 5.863874 -29.138937 -58.585836 2.074496 107.109592 -9.465367 -21.278493 0.000000 0.000000 0.000000 -23.984849 -1.191206 -3.379768 60.944033 47.681808 30.126650 -118.626571 15.481863 -5.616023 0.000000 0.000000 0.000000 
-0.058297 0.934268 -0.069032 0.811268 13.166599 3.986152 6.350742 -1.134549 -16.732197 2.517516 -1.198500 12.526523 -6.474952 -3.019150 14.663039 0.000000 0.000000 0.000000 -9.327268 0.010171 -15.236218 0.412874 0.052617 16.296215 2.844228 0.523202 17.505217 0.000000 0.000000 0.000000 8.066111 -0.633476 3.403166 -1.670718 0.773090 -0.255365 -1.659737 14.719247 13.300997 13.691602 -11.880445 0.184819 0.000000 0.000000 0.000000 22.690668 0.061734 5.912451 -30.209616 -58.850570 2.369101 107.720726 -10.052497 -22.287761 0.000000 0.000000 0.000000 -25.554341 -0.452328 -3.454216 61.226651 48.123940 31.070370 -117.082423 13.942611 -3.000347 0.000000 0.000000 0.000000 
-0.056703 0.934436 -0.071226 0.921415 13.028136 3.626172 6.061219 -1.166369 -16.920456 2.528367 -1.288170 13.426791 -6.420268 -2.894295 14.759624 0.000000 0.000000 0.000000 -9.618858 -0.046234 -15.619550 0.460251 0.028427 17.411002 3.062648 0.694071 17.992764 0.000000 0.000000 0.000000 7.859021 -0.736110 4.502432 -1.444211 0.725775 -1.249094 -1.529634 14.524674 14.107180 13.608302 -11.474322 -0.519167 0.000000 0.000000 0.000000 23.360908 0.296893 5.957213 -31.680268 -58.893301 2.904926 109.691104 -10.235168 -22.883814 0.000000 0.000000 0.000000 -25.488027 -1.154871 -3.600780 63.347602 47.556864 31.892985 -117.170917 13.998147 -3.181323 0.000000 0.000000 0.000000 
-0.056787 0.934593 -0.072836 0.804099 12.189294 3.122175 5.924823 -1.159106 -17.044195 2.890707 -1.482606 14.698237 -6.037306 -2.324197 14.873173 0.000000 0.000000 0.000000 -9.342207 0.019952 -15.925792 0.128943 0.152411 18.269298 3.536452 1.243426 18.299773 0.000000 0.000000 0.000000 7.199115 -0.754627 5.276402 -1.110651 0.589953 -1.492717 -1.578511 12.940115 14.814623 12.664954 -10.370371 -1.109191 0.000000 0.000000 0.000000 24.550206 1.226153 5.644069 -33.343834 -59.022018 4.216356 110.205133 -9.498926 -20.878742 0.000000 0.000000 0.000000 -24.287280 -1.728204 -3.251634 65.336936 47.717148 32.200914 -117.330281 15.103726 -6.041713 0.000000 0.000000 0.000000 
-0.057811 0.933101 -0.073827 0.213809 11.729013 2.645464 6.901404 -1.085677 -17.640325 2.347659 -1.524710 16.458133 -5.704616 -2.026371 14.597510 0.000000 0.000000 0.000000 -8.733224 0.120322 -16.547397 -0.116340 0.218824 20.669614 4.263270 3.252614 15.887202 0.000000 0.000000 0.000000 6.607194 -0.781001 6.053739 -0.445644 0.327371 -2.158425 -1.937014 10.273997 15.517168 11.664889 -9.612476 -0.954064 0.000000 0.000000 0.000000 25.782986 0.889307 5.247664 -34.351094 -58.613465 5.562582 111.408531 -9.065993 -19.153671 0.000000 0.000000 0.000000 -21.700085 -2.811118 -2.773654 67.037381 47.671644 31.540264 -119.752871 18.675156 -13.671854 0.000000 0.000000 0.000000 
-0.059089 0.930017 -0.074254 -0.269928 10.737926 2.154066 7.651779 -0.974177 -17.739914 2.092683 -1.563131 17.768934 -5.020668 -1.515214 13.743145 0.000000 0.000000 0.000000 -7.850937 0.295329 -17.278103 -0.775235 0.470561 23.074001 4.560781 4.661696 13.307365 0.000000 0.000000 0.000000 6.042981 -0.801029 6.818051 0.246085 0.052726 -2.833944 -2.656777 8.598667 15.999133 10.994172 -9.426148 -0.051907 0.000000 0.000000 0.000000 26.818804 0.151397 4.963354 -34.835274 -57.817530 6.379691 111.454006 -9.462980 -18.693803 0.000000 0.000000 0.000000 -19.020177 -3.635702 -2.447524 67.053128 46.797517 29.478144 -121.668266 22.581209 -21.592147 0.000000 0.000000 0.000000 
-0.060123 0.925672 -0.074742 -0.756576 9.024663 1.388522 8.477822 -0.813367 -17.837417 1.675608 -1.599321 19.967377 -3.961068 -0.537594 12.693606 0.000000 0.000000 0.000000 -7.100319 0.483814 -17.991897 -1.294242 0.773613 25.268391 5.271693 6.541301 11.660724 0.000000 0.000000 0.000000 5.651825 -0.834521 7.707899 0.418009 -0.057428 -2.447569 -3.129890 7.749809 15.878164 10.426678 -9.415662 1.245738 0.000000 0.000000 0.000000 27.946809 -0.657196 4.750688 -33.676259 -57.050208 6.402545 110.633993 -10.153921 -18.703644 0.000000 0.000000 0.000000 -17.110276 -4.509222 -2.254258 66.119542 46.840177 27.924798 -122.243026 25.867647 -28.175531 0.000000 0.000000 0.000000 
